<?xml version="1.0" encoding="UTF-8"?>
<svg version="1.1" xmlns="http://www.w3.org/2000/svg" width="430" height="452">
<path d="M0 0 C0 12.87 0 25.74 0 39 C-3.96518177 40.98259089 -6.99733449 42.43924337 -11.09765625 43.65625 C-30.64135734 49.67400375 -48.42053528 57.55470853 -64 71 C-64.96164063 71.81210938 -65.92328125 72.62421875 -66.9140625 73.4609375 C-76.43026562 81.77123058 -84.08668332 91.46081792 -91 102 C-91.56332031 102.84304687 -92.12664062 103.68609375 -92.70703125 104.5546875 C-110.51115645 132.92875611 -116.25903373 171.58448066 -108.90649414 204.16552734 C-102.3380472 230.14738413 -89.55122741 251.82257082 -71 271 C-70.36191406 271.68964844 -69.72382812 272.37929688 -69.06640625 273.08984375 C-51.18363987 292.0018341 -23.85497896 302.47667134 1 308 C1 271.04 1 234.08 1 196 C-12.53 196 -26.06 196 -40 196 C-43.38408892 192.61591108 -43.34736403 191.4786937 -43.36553955 186.89205933 C-43.34701935 185.67318527 -43.34701935 185.67318527 -43.328125 184.4296875 C-43.32625183 183.59285431 -43.32437866 182.75602112 -43.32244873 181.89382935 C-43.31573041 180.12693287 -43.30182023 178.36005122 -43.28125 176.59326172 C-43.25003956 173.87844132 -43.24027393 171.16420092 -43.234375 168.44921875 C-43.22520735 166.73436787 -43.21483234 165.01952292 -43.203125 163.3046875 C-43.19887512 162.48805634 -43.19462524 161.67142517 -43.19024658 160.83004761 C-43.11716458 155.11716458 -43.11716458 155.11716458 -42 154 C-32.34550113 152.56652745 -22.4827154 152.8814189 -12.75 152.9375 C-11.21484522 152.94252957 -9.67968884 152.94708988 -8.14453125 152.95117188 C-4.4296533 152.96205161 -0.71483741 152.97923423 3 153 C2.9278125 151.72769531 2.855625 150.45539063 2.78125 149.14453125 C2.09711484 136.41669058 1.88378694 123.74469907 2 111 C5.19743139 109.40128431 8.67059116 109.81578319 12.18359375 109.796875 C12.9949025 109.79117493 13.80621124 109.78547485 14.6421051 109.77960205 C16.35945327 109.77015014 18.07681959 109.76361731 19.79418945 109.75976562 C22.42366049 109.75005113 25.05235283 109.71902682 27.68164062 109.6875 C29.34895368 109.68097082 31.01627234 109.67572002 32.68359375 109.671875 C33.47116562 109.6595282 34.25873749 109.6471814 35.07017517 109.63446045 C40.53784225 109.65681343 40.53784225 109.65681343 42.70455933 111.26576233 C44.28159592 113.37697925 44.39213394 114.48870621 44.43237305 117.10424805 C44.45216721 117.92487228 44.47196136 118.74549652 44.49235535 119.59098816 C44.50194023 120.9129998 44.50194023 120.9129998 44.51171875 122.26171875 C44.52966995 123.16751175 44.54762115 124.07330475 44.56611633 125.00654602 C44.62030659 127.90014996 44.65414286 130.79358815 44.6875 133.6875 C44.72066539 135.64911165 44.75515432 137.61070141 44.79101562 139.57226562 C44.87603806 144.38139097 44.9428076 149.19046641 45 154 C46.29736084 153.99476318 47.59472168 153.98952637 48.93139648 153.98413086 C53.72647415 153.96608531 58.5215488 153.95456963 63.31665039 153.94506836 C65.39543156 153.94002712 67.47420916 153.93319426 69.55297852 153.92456055 C72.53402586 153.91248578 75.51502649 153.90676976 78.49609375 153.90234375 C79.89921059 153.89460182 79.89921059 153.89460182 81.33067322 153.88670349 C82.19149002 153.88662796 83.05230682 153.88655243 83.93920898 153.88647461 C84.70087875 153.884254 85.46254852 153.88203339 86.24729919 153.87974548 C88 154 88 154 89 155 C89.10105822 157.78825348 89.1396984 160.55120873 89.1328125 163.33984375 C89.13376923 164.17713516 89.13472595 165.01442657 89.13571167 165.87709045 C89.13639355 167.65170364 89.13453872 169.42631931 89.13037109 171.20092773 C89.1250296 173.9224202 89.13031235 176.64374712 89.13671875 179.36523438 C89.13605784 181.08593787 89.13477641 182.80664125 89.1328125 184.52734375 C89.13483673 185.34508774 89.13686096 186.16283173 89.13894653 187.00535583 C89.11495507 192.77008985 89.11495507 192.77008985 88 195 C73.81 195 59.62 195 45 195 C45.01047363 199.61387695 45.02094727 204.22775391 45.03173828 208.98144531 C45.06483078 224.20059418 45.08705253 239.41974443 45.10362434 254.63891983 C45.11394184 263.86916181 45.12801122 273.09936973 45.15087891 282.32958984 C45.17079829 290.37359475 45.18371299 298.417575 45.18817699 306.46160388 C45.19078683 310.7218015 45.19693093 314.98192855 45.21146011 319.24210358 C45.22502109 323.25081151 45.22922565 327.25941973 45.22621536 331.26814842 C45.22676619 332.74035115 45.2307525 334.21255716 45.23841095 335.68474007 C45.24834838 337.69330567 45.24478037 339.70192461 45.24050903 341.71051025 C45.24235262 342.83509769 45.24419621 343.95968513 45.24609566 345.11835098 C45.00262853 347.96922136 44.57281758 349.63101835 43 352 C39.84179206 353.1222789 36.32702792 352.90606039 33 353 C32.36416992 353.02578125 31.72833984 353.0515625 31.07324219 353.078125 C11.19781103 353.82426976 -8.86139691 351.40107817 -28 346 C-29.79824219 345.49726562 -29.79824219 345.49726562 -31.6328125 344.984375 C-75.55851063 331.51256262 -113.10457008 298.50359531 -134.79589844 258.33349609 C-156.50183309 216.26834536 -161.73954025 166.67666843 -147.55957031 121.27685547 C-132.50960991 76.04407974 -100.89685862 36.96992456 -58.19970703 15.07470703 C-13.51431458 -6.75715729 -13.51431458 -6.75715729 0 0 Z " fill="#FEFCFC" transform="translate(192,2)"/>
<path d="M0 0 C8.49648368 -0.12139432 8.49648368 -0.12139432 12.671875 0.84765625 C13.89946533 1.13104858 13.89946533 1.13104858 15.15185547 1.42016602 C16.00924316 1.63213623 16.86663086 1.84410645 17.75 2.0625 C18.66539551 2.28800537 19.58079102 2.51351074 20.52392578 2.74584961 C42.82619326 8.41620973 65.07284149 17.2364577 83 32 C83.88042969 32.69351563 84.76085937 33.38703125 85.66796875 34.1015625 C123.80732878 64.54849872 148.38023692 106.29854525 154.59204102 154.93603516 C155.33698122 161.75556907 155.39429063 168.58387142 155.375 175.4375 C155.37445618 176.17301086 155.37391235 176.90852173 155.37335205 177.6663208 C155.24289242 216.34394968 142.66945041 253.36351838 119 284 C118.34902344 284.8559375 117.69804687 285.711875 117.02734375 286.59375 C102.23211713 305.39889785 83.93835516 320.50530436 63 332 C62.36336426 332.35384766 61.72672852 332.70769531 61.07080078 333.07226562 C49.60289627 339.38148742 49.60289627 339.38148742 44 338 C43.90100439 331.96774061 43.82847093 325.93595573 43.78027344 319.90307617 C43.76017801 317.85156007 43.73289676 315.80010111 43.69824219 313.7487793 C43.64963331 310.79721975 43.62701048 307.84641852 43.609375 304.89453125 C43.58872986 303.97976517 43.56808472 303.06499908 43.54681396 302.12251282 C43.54533259 297.90323786 43.60236612 295.63453747 45.88745117 291.98803711 C48.01634827 289.98461528 50.11478829 288.3468597 52.5625 286.75 C82.91368915 266.14337526 101.42924287 236.06215643 109.78125 200.69140625 C110.32819976 197.7917682 110.70600327 194.93624586 111 192 C111.06558105 191.37013184 111.13116211 190.74026367 111.19873047 190.09130859 C114.65501509 154.79079016 104.66924607 117.76269196 82.28442383 90.01049805 C68.58814122 73.57072368 52.47577048 61.82464315 33 53 C31.25976562 52.18595703 31.25976562 52.18595703 29.484375 51.35546875 C22.31086993 48.12084032 15.09361096 45.68555355 7.50805664 43.64770508 C2.19789822 42.19789822 2.19789822 42.19789822 0 40 C-0.17546482 36.98691049 -0.23127445 34.06689546 -0.1953125 31.0546875 C-0.1924826 30.1696756 -0.18965271 29.2846637 -0.18673706 28.37283325 C-0.1755224 25.54008588 -0.1504157 22.70765216 -0.125 19.875 C-0.11497185 17.95703581 -0.10584572 16.03906667 -0.09765625 14.12109375 C-0.07557889 9.41394124 -0.04104045 4.70702384 0 0 Z " fill="#FEFEFC" transform="translate(238,1)"/>
<path d="M0 0 C3.25496975 -1.45810862 5.67294662 -3.31027168 8.375 -5.625 C29.80853301 -22.9161811 55.09717741 -27.195207 82.05859375 -24.5703125 C102.23325715 -22.14511032 121.57860293 -15.20560506 140.77993774 -8.84912109 C152.81818628 -4.87287951 164.93873701 -1.50601196 177.26611328 1.45092773 C179.07764893 1.89287476 179.07764893 1.89287476 180.92578125 2.34375 C181.98192627 2.59318359 183.03807129 2.84261719 184.1262207 3.09960938 C189.69528343 4.84446566 192.65054642 7.42791471 196 12.125 C197.14662109 13.70474609 197.14662109 13.70474609 198.31640625 15.31640625 C198.94699951 16.18869873 198.94699951 16.18869873 199.59033203 17.07861328 C202.31081862 20.7866544 205.13260862 24.41816023 207.9375 28.0625 C209.05175594 29.51096948 210.16509701 30.96014338 211.27734375 32.41015625 C211.99265259 33.34033569 211.99265259 33.34033569 212.72241211 34.28930664 C215.2043356 37.61260836 216 38.68744693 216 43 C177.66160983 44.29230529 140.77496912 32.18847142 104.88418579 19.9241333 C98.47531823 17.73805011 92.1636427 15.89584755 85.5 14.6875 C84.60837158 14.52507812 83.71674316 14.36265625 82.7980957 14.1953125 C66.71032299 11.44195347 50.19578829 12.45113918 35.80078125 20.8828125 C31.38423421 24.22140176 27.56485718 28.12879886 23.76904297 32.14990234 C23.20717285 32.74496582 22.64530273 33.3400293 22.06640625 33.953125 C21.57084229 34.49098633 21.07527832 35.02884766 20.56469727 35.58300781 C15.02551774 40.59929709 7.79298434 39.48301588 0.75 39.5625 C-0.54808594 39.61212891 -1.84617188 39.66175781 -3.18359375 39.71289062 C-13.92935109 39.82790638 -13.92935109 39.82790638 -18.6796875 35.71875 C-19.8199881 34.5099394 -20.93215345 33.27326834 -22 32 C-23.07894531 30.89978516 -23.07894531 30.89978516 -24.1796875 29.77734375 C-24.73914063 29.17019531 -25.29859375 28.56304687 -25.875 27.9375 C-36.09353971 17.659319 -50.07628845 13.05829429 -64.375 12.625 C-84.24457949 12.65728403 -103.2259798 19.85644285 -121.83618164 26.04516602 C-142.48376105 32.89792339 -163.35998976 39.23236914 -185 42 C-185.87011719 42.12890625 -186.74023438 42.2578125 -187.63671875 42.390625 C-196.34003849 43.513634 -205.24305732 43.08091631 -214 43 C-213.46029749 38.69008994 -212.04307917 36.33005759 -209.375 32.9375 C-206.27518343 28.97607307 -203.27126332 24.99402449 -200.3828125 20.875 C-199.7429541 19.97918213 -199.1030957 19.08336426 -198.44384766 18.16040039 C-197.16895345 16.37455575 -195.91014005 14.57709745 -194.66943359 12.76733398 C-190.34085948 6.78964144 -187.13873302 4.55353751 -180 3 C-177.76811997 2.40369486 -175.5377887 1.80157826 -173.30859375 1.1953125 C-171.37394769 0.68682951 -169.43930001 0.17835267 -167.50460815 -0.32995605 C-153.6397149 -3.98577643 -140.03644611 -8.20908361 -126.4375 -12.75 C-81.1698322 -27.83135711 -38.52998964 -32.86600664 0 0 Z " fill="#FBFDFE" transform="translate(214,409)"/>
<path d="M0 0 C0.66 0.33 1.32 0.66 2 1 C-6.58 9.58 -15.16 18.16 -24 27 C-24 23.49761163 -23.59014752 23.18651418 -21.2890625 20.7421875 C-20.70785645 20.12029541 -20.12665039 19.49840332 -19.52783203 18.85766602 C-18.89989746 18.20338623 -18.27196289 17.54910645 -17.625 16.875 C-16.99319824 16.20718506 -16.36139648 15.53937012 -15.71044922 14.85131836 C-10.71014898 9.61751891 -5.51685683 4.69059947 0 0 Z " fill="#FFE8E7" transform="translate(103,37)"/>
</svg>
