<svg xmlns="http://www.w3.org/2000/svg" id="Layer_1" data-name="Layer 1" viewBox="0 0 213.46 289.83"><defs><style>      .cls-1 {        fill: #e8f3ff;      }    </style></defs><path class="cls-1" d="M111.66,289.46c.24-.27,.48-.57,.72-.89l.35-.48c.61-.93,1.16-1.9,1.64-2.9,1.19-4.08,2.87-7.97,2.97-10.19,1.27-17.93,2.32-35.94,2.91-53.87-.62-.05-1.27,.89-1.51-.6-.46-4.69,1.72-8.4,1.25-13.09-.33-.12-.66-.24-.99-.36,.52-3.61,1.18-7.37,1.76-11.21,.04-7.1,0-14.16-.15-21.2-.37,.17-.71,.25-.82-.45-.19-2.93,.27-6.97,.49-11.16-.04-.62-.09-1.24-.12-1.85-.14-.34-.42-.59-.76-.7,.08-1.89,.23-3.58,.38-5.14-.79-11.54-1.69-23.19-2.62-35.18,31.45-.62,62.87-1.53,93.88-2.16,3.91-.7,1.95-2.09,1.95-3.48-7.81,0-15.64,.7-21.5-.7-1.96,0,1.95-2.79,0-4.18h-7.82c-1.95-2.09,1.96-4.18,0-6.27-1.95-2.09-9.77-.7-11.73-2.09-5.87-1.39,3.91-2.09,9.78-2.09-1.95-1.39,3.91,0,3.91-1.39,0-2.79,0-5.57-7.82-7.66-1.96-.7,0-2.79,0-4.18-20.51,0-42.51,0-63.4,1.86-.6-3.75-1.13-7.47-1.37-11.08-.2-6.85,.69-15.56,.98-22.23-3.57,.93-4.86-15.38-8.52-12.23,.2-4.44,.49-11.12-.5-11.49-2.97-1.11-6.34-4.63-7.83-16.49-.3-4.63,1.16-11.7,.59-13.34-.89-2.59-2.99,.57-3.17,3.34-1.68,28.71-1.67,56.59-2.18,85.17-16.44,.3-34.3-1.15-49.51,.66-5.87,.7-15.64-2.09-19.55,1.39h5.86c-5.86,2.09-11.73,0-17.59,.7,0,1.4,0,2.09-1.96,2.79,3.91,0,9.78-.7,13.69,0v2.09c-3.91,.7-9.78-.7-13.69,0l-.28,1.79c0,.7-3.65,1.18-3.63,1.69h7.82v2.79c0,.7-1.95,.7-3.91,.7,0,1.39-1.96,2.79,0,3.48h5.87c-7.82,.7-11.73,4.18-11.73,6.27,1.96-.7,1.96,1.39,3.91,.7-5.86,2.09-11.73,4.88-3.91,5.57,29.31,.9,58.98,.89,88.7,.49,.23,27.06-.89,81.06-1.89,97.35,0,.62,0,1.24,0,1.85-.49,11.12-.59,24.64,.51,34.09,.72,4.34,1.61,8.76,2.47,13.16,.64-2.02,1.27-3.88,1.89-5.5-.2,4.45-.39,8.89,.2,10.62,1.26,9.52,3.17,4.2,5.68,.62,1.12-2.59,2.64,.99,3.83-3.08-.13,2.96-.19,4.44-.33,7.41,.99,.37-.26-9.15,1.32-7.04-.46,2.84,.07,6.05-.06,9.02,1.39-.99,.79-10.25,2.11-9.76,.27,1.61-2.04,8.28-.39,8.9,.33,.12,.46-2.84,.53-4.32,.27,9.14,1.72,14.21,3.76,5.93-.13,2.89-.94,6.96-.8,10.03l.37-.37Z"/></svg>