<?xml version="1.0" standalone="no"?>
<!DOCTYPE svg PUBLIC "-//W3C//DTD SVG 20010904//EN"
 "http://www.w3.org/TR/2001/REC-SVG-20010904/DTD/svg10.dtd">
<svg version="1.0" xmlns="http://www.w3.org/2000/svg"
 width="541.000000pt" height="782.000000pt" viewBox="0 0 541.000000 782.000000"
 preserveAspectRatio="xMidYMid meet">

<g transform="translate(0.000000,782.000000) scale(0.100000,-0.100000)"
fill="#FFFFFF" stroke="none">
<path d="M2210 7779 c-143 -34 -190 -48 -314 -96 -487 -188 -907 -561 -1155
-1024 -107 -200 -178 -400 -228 -643 -26 -124 -27 -146 -27 -406 0 -269 1
-278 31 -425 97 -470 315 -866 655 -1191 444 -423 1047 -645 1661 -609 l127 7
0 973 0 973 168 4 c159 3 170 5 218 30 29 15 67 45 86 68 60 70 68 112 67 369
0 129 -4 215 -9 200 -13 -45 -50 -86 -104 -116 l-51 -28 -335 -6 c-312 -5
-338 -6 -381 -26 -64 -29 -113 -75 -140 -131 l-24 -47 -5 -865 -5 -865 -23 -3
c-31 -5 -207 41 -320 83 -395 148 -738 456 -927 835 -153 305 -210 629 -171
967 47 399 219 748 508 1029 185 179 388 305 628 389 154 53 200 87 242 180
20 44 23 70 26 228 l4 177 -38 -1 c-22 0 -95 -14 -164 -30z"/>
<path d="M3002 7628 c3 -175 5 -185 30 -234 47 -89 93 -120 277 -186 365 -130
713 -433 904 -788 208 -388 259 -857 138 -1277 -105 -363 -323 -680 -625 -907
-160 -120 -167 -141 -164 -454 l3 -231 136 68 c219 109 385 228 562 400 689
669 865 1721 432 2582 -273 543 -748 950 -1320 1130 -114 35 -304 79 -345 79
l-32 0 4 -182z"/>
<path d="M2639 6414 c-61 -18 -136 -86 -165 -149 -22 -46 -24 -62 -24 -226 l0
-177 -162 -4 c-176 -5 -209 -14 -279 -68 -19 -16 -48 -52 -65 -82 l-29 -53 -2
-240 c-2 -172 0 -233 8 -215 16 39 59 79 114 108 44 22 65 26 182 30 l131 5 4
166 c3 165 3 167 35 232 39 79 102 140 181 177 53 25 67 27 225 30 l167 3 0
240 0 239 -137 -1 c-89 0 -154 -5 -184 -15z"/>
<path d="M1725 3004 c-206 -30 -376 -75 -725 -190 -216 -72 -422 -130 -541
-154 -79 -15 -138 -57 -206 -143 -137 -177 -243 -317 -243 -323 0 -4 87 -4
192 -1 297 8 441 39 958 207 438 142 537 164 720 164 137 0 210 -15 309 -63
90 -43 140 -82 234 -180 l86 -91 198 0 198 0 48 59 c56 69 159 156 238 199
138 76 309 97 509 63 149 -25 214 -44 595 -166 491 -158 614 -184 914 -192
163 -5 193 -3 186 8 -5 8 -45 61 -89 119 -45 58 -108 141 -141 184 -76 101
-136 141 -236 160 -116 23 -274 68 -539 156 -431 142 -597 179 -830 187 -140
5 -167 3 -278 -21 -197 -41 -379 -132 -519 -259 -39 -36 -59 -48 -68 -41 -7 5
-47 37 -89 71 -140 114 -278 182 -447 223 -73 18 -129 24 -249 26 -85 1 -168
0 -185 -2z"/>
<path d="M410 1711 c-304 -58 -471 -328 -385 -624 84 -290 462 -416 775 -260
l75 38 3 193 2 192 -95 0 -95 0 0 -136 0 -135 -37 -16 c-21 -9 -70 -19 -110
-21 -105 -6 -174 18 -239 83 -62 61 -84 120 -84 220 0 60 5 82 31 134 32 64
62 93 139 132 36 18 61 23 130 23 93 0 152 -20 214 -74 l31 -28 68 63 67 63
-27 29 c-36 38 -105 78 -179 103 -67 23 -213 34 -284 21z"/>
<path d="M3411 1709 c-70 -12 -184 -67 -240 -115 -109 -94 -157 -219 -149
-388 4 -96 8 -112 41 -178 84 -171 250 -268 457 -268 139 0 258 43 345 125
l38 36 -69 63 -69 63 -43 -38 c-60 -52 -126 -73 -216 -67 -205 13 -326 205
-256 405 67 192 325 252 484 112 l32 -27 67 60 68 61 -33 34 c-96 100 -291
152 -457 122z"/>
<path d="M1092 1238 l3 -463 103 -3 102 -3 0 131 0 130 103 0 102 -1 73 -108
c109 -161 94 -151 217 -151 58 0 105 3 105 8 0 4 -43 68 -95 142 -52 74 -95
140 -94 145 0 6 20 23 45 39 150 95 181 336 61 472 -93 105 -166 124 -486 124
l-241 0 2 -462z m500 268 c114 -56 109 -234 -7 -282 -27 -12 -80 -19 -162 -22
l-123 -4 0 167 0 167 128 -4 c97 -3 136 -8 164 -22z"/>
<path d="M2351 1683 c-5 -10 -57 -126 -116 -258 -59 -132 -147 -329 -196 -438
-49 -110 -89 -203 -89 -208 0 -6 45 -8 107 -7 l107 3 39 97 39 97 211 3 c130
2 215 -1 222 -7 7 -5 29 -52 50 -102 l38 -93 108 0 c60 0 109 3 109 6 0 3 -23
58 -51 123 -72 162 -315 707 -339 759 l-20 42 -105 0 c-89 0 -106 -3 -114 -17z
m137 -248 c6 -16 25 -64 42 -105 38 -87 80 -192 80 -197 0 -2 -65 -3 -145 -3
-117 0 -145 3 -145 14 0 7 12 40 26 72 14 33 34 79 44 104 72 173 76 178 98
115z"/>
<path d="M4050 1235 l0 -466 103 3 102 3 3 463 2 462 -105 0 -105 0 0 -465z"/>
<path d="M4726 1587 c-100 -228 -166 -377 -260 -586 -53 -118 -96 -218 -96
-223 0 -10 192 -9 208 1 5 3 27 48 48 99 l38 92 219 -2 220 -3 36 -85 c20 -47
40 -91 44 -98 6 -9 39 -12 113 -11 57 0 104 4 104 7 0 4 -49 117 -110 252 -60
135 -152 340 -203 455 l-94 210 -109 2 -109 3 -49 -113z m207 -214 c66 -156
97 -232 97 -238 0 -7 -275 -6 -283 1 -6 7 15 66 84 236 24 60 47 108 50 108 4
0 27 -48 52 -107z"/>
<path d="M4498 510 c-103 -26 -162 -103 -162 -211 0 -56 4 -74 27 -108 44 -66
97 -95 183 -99 60 -3 81 0 119 18 58 28 65 45 32 77 l-25 26 -30 -22 c-22 -15
-45 -21 -82 -21 -47 0 -56 4 -91 39 -34 34 -39 44 -39 85 0 89 49 140 132 140
34 0 57 -7 79 -23 l31 -23 29 28 c23 22 26 30 17 41 -36 44 -149 70 -220 53z"/>
<path d="M0 300 l0 -210 160 0 160 0 0 40 0 40 -110 0 -110 0 0 50 0 50 95 0
95 0 0 35 0 35 -95 0 -95 0 0 45 0 45 105 0 105 0 0 40 0 40 -155 0 -155 0 0
-210z"/>
<path d="M400 299 l0 -210 48 3 47 3 5 123 5 123 100 -125 c96 -120 102 -125
138 -126 l37 0 0 210 0 210 -45 0 -45 0 0 -121 c0 -81 -3 -118 -10 -114 -6 4
-54 58 -106 121 -92 110 -96 114 -134 114 l-40 0 0 -211z"/>
<path d="M1149 423 c-22 -48 -44 -97 -49 -108 -5 -11 -29 -66 -54 -122 l-45
-103 49 0 c48 0 48 0 66 45 l17 45 99 0 99 0 20 -45 c19 -44 21 -45 64 -45 30
0 45 4 44 13 0 6 -40 100 -88 207 l-87 195 -47 3 -48 3 -40 -88z m112 -70 c11
-27 23 -60 26 -75 5 -27 4 -28 -33 -27 -22 1 -49 4 -60 7 l-22 7 27 68 c14 37
29 67 34 67 4 0 17 -21 28 -47z"/>
<path d="M1520 299 l0 -211 143 4 c164 5 199 16 223 75 20 46 10 86 -28 118
l-31 26 22 23 c30 32 29 105 -1 134 -38 35 -74 42 -204 42 l-124 0 0 -211z
m245 121 c8 -7 15 -21 15 -31 0 -31 -39 -49 -107 -49 l-63 0 0 51 0 52 70 -5
c38 -3 77 -11 85 -18z m13 -166 c24 -17 29 -53 10 -72 -7 -7 -44 -12 -95 -12
l-83 0 0 50 0 50 73 0 c49 0 80 -5 95 -16z"/>
<path d="M1972 358 c3 -131 6 -158 23 -187 34 -58 67 -75 150 -79 63 -4 80 -1
115 19 70 39 83 78 88 252 l4 147 -50 0 -51 0 -3 -149 c-4 -177 -10 -191 -88
-191 -37 0 -51 5 -71 26 -23 24 -24 33 -27 170 l-4 144 -45 0 -45 0 4 -152z"/>
<path d="M2440 299 l0 -210 48 3 47 3 5 124 5 124 100 -124 c98 -121 101 -124
140 -124 l40 0 0 205 0 205 -47 3 -47 3 -3 -123 -3 -123 -100 122 c-99 120
-101 121 -142 122 l-43 1 0 -211z"/>
<path d="M2930 299 l0 -211 128 3 c113 4 133 7 177 30 153 78 147 292 -9 365
-45 21 -66 24 -173 24 l-123 0 0 -211z m276 98 c31 -28 37 -41 41 -83 8 -94
-47 -144 -158 -144 l-69 0 0 130 0 130 75 0 c71 0 77 -2 111 -33z"/>
<path d="M3547 503 c-4 -7 -57 -123 -163 -360 l-24 -53 49 0 c49 0 49 0 67 45
l17 45 98 0 99 0 22 -45 c21 -43 24 -45 65 -45 28 0 43 4 43 13 0 6 -40 100
-89 207 l-88 195 -45 3 c-26 2 -48 -1 -51 -5z m74 -147 c10 -24 22 -59 25 -76
l7 -32 -57 4 c-31 1 -57 7 -58 11 -3 15 46 137 55 137 4 0 17 -20 28 -44z"/>
<path d="M3880 300 l0 -210 45 0 45 0 0 120 c0 66 4 120 9 120 5 0 21 -17 37
-37 15 -21 59 -75 97 -120 65 -78 72 -83 108 -83 l39 0 0 210 0 210 -50 0 -49
0 -3 -122 -3 -123 -100 122 c-95 117 -102 122 -137 123 l-38 0 0 -210z"/>
<path d="M4800 300 l0 -210 45 0 45 0 0 210 0 210 -45 0 -45 0 0 -210z"/>
<path d="M5097 448 c-14 -35 -55 -128 -91 -207 -36 -79 -66 -145 -66 -147 0
-2 22 -4 49 -4 48 0 48 0 65 45 l18 45 99 0 100 0 19 -45 c19 -44 20 -45 65
-45 25 0 45 4 45 8 0 5 -41 100 -91 210 l-92 202 -47 0 -48 0 -25 -62z m113
-120 c16 -36 26 -69 23 -72 -11 -10 -123 -7 -123 4 0 23 53 141 62 138 5 -2
23 -33 38 -70z"/>
</g>
</svg>
